<svg width="48" height="48" viewBox="0 0 48 48" fill="none" xmlns="http://www.w3.org/2000/svg">
<path fill-rule="evenodd" clip-rule="evenodd" d="M17.924 36.9382C12.038 32.4282 4 24.9782 4 17.9342C4 6.1662 15 1.77219 24 10.8602C33 1.77219 44 6.1662 44 17.9342C44 24.9782 35.96 32.4282 30.076 36.9382C27.412 38.9782 26.08 40.0002 24 40.0002C21.92 40.0002 20.588 38.9802 17.924 36.9382ZM33 12.5002C33.3978 12.5002 33.7794 12.6582 34.0607 12.9395C34.342 13.2208 34.5 13.6024 34.5 14.0002V16.5002H37C37.3978 16.5002 37.7794 16.6582 38.0607 16.9395C38.342 17.2208 38.5 17.6024 38.5 18.0002C38.5 18.398 38.342 18.7796 38.0607 19.0609C37.7794 19.3422 37.3978 19.5002 37 19.5002H34.5V22.0002C34.5 22.398 34.342 22.7795 34.0607 23.0609C33.7794 23.3422 33.3978 23.5002 33 23.5002C32.6022 23.5002 32.2206 23.3422 31.9393 23.0609C31.658 22.7795 31.5 22.398 31.5 22.0002V19.5002H29C28.6022 19.5002 28.2206 19.3422 27.9393 19.0609C27.658 18.7796 27.5 18.398 27.5 18.0002C27.5 17.6024 27.658 17.2208 27.9393 16.9395C28.2206 16.6582 28.6022 16.5002 29 16.5002H31.5V14.0002C31.5 13.6024 31.658 13.2208 31.9393 12.9395C32.2206 12.6582 32.6022 12.5002 33 12.5002Z" fill="white"/>
</svg>
