<svg width="355" height="210" viewBox="0 0 355 210" fill="none" xmlns="http://www.w3.org/2000/svg">
<rect x="179.923" y="34.1598" width="155.81" height="111.916" rx="21.2969" transform="rotate(17.5605 179.923 34.1598)" fill="url(#paint0_linear_336_1089)" stroke="url(#paint1_linear_336_1089)"/>
<rect x="262.238" y="91.1387" width="38.923" height="10.8985" rx="2" transform="rotate(16.2566 262.238 91.1387)" fill="#D3B0F2" fill-opacity="0.64"/>
<rect x="223.314" y="101.258" width="73.0106" height="10.8985" rx="2" transform="rotate(16.2566 223.314 101.258)" fill="#E1C5FA"/>
<rect x="231.098" y="126.168" width="58.0553" height="10.8985" rx="2" transform="rotate(16.2566 231.098 126.168)" fill="#D3B0F2" fill-opacity="0.64"/>
<path d="M126.04 103.45C120.211 97.2871 117.414 89.9957 117.648 81.5758C117.882 73.1559 121.081 66.0315 127.244 60.2025C133.407 54.3735 140.698 51.5762 149.118 51.8106C157.538 52.0451 164.663 55.2438 170.492 61.4067C176.321 67.5697 179.118 74.8611 178.883 83.281C178.649 91.7009 175.45 98.8253 169.287 104.654C163.124 110.483 155.833 113.281 147.413 113.046C138.993 112.812 131.869 109.613 126.04 103.45ZM84.8988 157.268L85.0693 151.144C85.1901 146.807 86.4186 142.852 88.7549 139.281C91.0911 135.71 94.1332 133.017 97.8812 131.201C105.901 127.466 114.021 124.725 122.24 122.978C130.46 121.23 138.78 120.471 147.2 120.701C155.62 120.93 163.885 122.151 171.994 124.363C180.104 126.576 188.058 129.764 195.858 133.929C199.504 135.946 202.394 138.804 204.528 142.505C206.662 146.206 207.666 150.222 207.54 154.554L207.37 160.678C207.253 164.888 205.654 168.451 202.575 171.369C199.496 174.286 195.849 175.683 191.635 175.561L99.7813 173.003C95.5714 172.886 92.0104 171.287 89.0984 168.209C86.1864 165.13 84.7865 161.483 84.8988 157.268Z" fill="#FBB03B" fill-opacity="0.8"/>
<path d="M147.19 121.089C155.579 121.318 163.812 122.534 171.892 124.738C179.972 126.943 187.899 130.121 195.675 134.272L195.675 134.271C199.255 136.253 202.093 139.06 204.191 142.699C206.289 146.336 207.275 150.282 207.151 154.543L206.98 160.668C206.866 164.773 205.312 168.24 202.308 171.086C199.303 173.933 195.757 175.291 191.646 175.171L99.7918 172.613C95.686 172.499 92.2223 170.945 89.3807 167.941C86.6282 165.03 85.2644 161.61 85.2815 157.662L85.2883 157.278L85.4588 151.155C85.5776 146.889 86.7846 143.004 89.0806 139.495C91.3782 135.983 94.365 133.338 98.0454 131.554C106.04 127.831 114.132 125.099 122.321 123.358C130.511 121.617 138.8 120.861 147.19 121.089ZM149.107 52.2001C157.423 52.4317 164.45 55.5855 170.209 61.674C175.968 67.7625 178.726 74.9546 178.495 83.2704C178.263 91.5861 175.108 98.6128 169.02 104.371C162.931 110.13 155.739 112.889 147.424 112.657C139.108 112.425 132.081 109.271 126.323 103.182C120.564 97.0939 117.805 89.9026 118.037 81.5869C118.268 73.271 121.423 66.2437 127.512 60.485C133.6 54.7266 140.791 51.9687 149.107 52.2001Z" stroke="url(#paint2_linear_336_1089)" stroke-opacity="0.5" stroke-width="0.778461"/>
<path d="M285.816 9.9783L289.34 4.98578C290.144 3.84682 291.856 3.8477 292.79 4.88309C295.631 8.03429 300.419 11.77 305.5 11.1348C311.476 10.3878 311.523 13.3605 310.689 15.2503C310.575 15.5089 310.379 15.7283 310.15 15.8951C299.503 23.6807 290.057 17.2995 285.862 12.2536C285.32 11.6013 285.327 10.6713 285.816 9.9783Z" fill="#F5E181"/>
<path d="M84.8163 23.9783L88.3405 18.9858C89.1444 17.8468 90.8563 17.8477 91.7898 18.8831C94.6312 22.0343 99.4185 25.77 104.5 25.1348C110.476 24.3878 110.523 27.3605 109.689 29.2503C109.575 29.5089 109.379 29.7283 109.15 29.8951C98.5028 37.6807 89.0565 31.2995 84.8623 26.2536C84.3201 25.6013 84.3272 24.6713 84.8163 23.9783Z" fill="#F5E181"/>
<path d="M337.171 158.87L333.711 153.833C332.922 152.683 333.516 151.078 334.811 150.562C338.752 148.99 343.917 145.796 345.084 140.81C346.457 134.946 349.261 135.933 350.744 137.371C350.947 137.568 351.085 137.828 351.162 138.1C354.77 150.787 345.508 157.433 339.321 159.616C338.521 159.898 337.651 159.569 337.171 158.87Z" fill="#BF4432"/>
<path d="M63.0698 193.599L65.2288 186.586C65.4383 185.906 66.2712 185.656 66.8205 186.109L71.5707 190.023C76.1102 193.764 81.8244 191.976 84.3974 190.47C84.5915 190.357 84.8167 190.301 85.0394 190.332C89.4989 190.945 90.1033 194.259 89.8124 196.154C89.7787 196.374 89.6555 196.566 89.4832 196.707L84.3236 200.914C82.2551 202.601 80.1523 203.144 79.2389 203.22C79.1549 203.227 79.0736 203.219 78.9913 203.201C76.8325 202.73 71.8244 201.471 68.0718 199.974C64.4008 198.509 63.2035 195.463 63.0321 193.955C63.0184 193.835 63.0341 193.715 63.0698 193.599Z" fill="#90D1D9"/>
<path d="M4.74866 4.00426L7.91186 1.54181C8.47351 1.10458 9.2992 1.37749 9.48967 2.0633L10.381 5.27268C11.3515 8.7674 14.8134 9.93747 16.7188 10.1308C16.9425 10.1535 17.1602 10.2347 17.3218 10.3911C19.2165 12.2252 18.4699 14.0458 17.6755 14.9444C17.5282 15.111 17.3149 15.1972 17.0932 15.2135L13.0319 15.5124C11.397 15.6328 10.1378 15.1805 9.61159 14.8881C9.53791 14.8472 9.47397 14.7925 9.41691 14.7305C8.45616 13.686 6.35626 11.2555 4.97441 9.14892C3.63886 7.11297 4.06863 5.15087 4.51496 4.27699C4.57007 4.16907 4.65303 4.0787 4.74866 4.00426Z" fill="#90D1D9"/>
<path d="M61.1017 85.8916L65.1717 91.9967C65.5666 92.5889 65.2338 93.3923 64.5358 93.5319L58.5 94.7393C52.732 95.893 50.5067 101.452 50.047 104.397C50.0123 104.619 49.9131 104.829 49.7486 104.982C46.4552 108.051 43.5053 106.425 42.2202 105.001C42.0712 104.836 42 104.619 42 104.397V97.7393C42 95.0702 42.9087 93.0978 43.4267 92.3417C43.4744 92.2722 43.5316 92.2139 43.5976 92.1614C45.327 90.7862 49.4683 87.7011 53 85.7391C56.455 83.8196 59.5723 84.8169 60.8491 85.637C60.951 85.7025 61.0344 85.7907 61.1017 85.8916Z" fill="#FE7359"/>
<path d="M0.783613 51.6815L0.088442 49.4222C0.0298102 49.2316 0 49.0334 0 48.834V46.9681C0 45.4583 1.60896 44.4929 2.94118 45.2034L5.52503 46.5815C6.578 47.143 6.90802 48.4958 6.23194 49.4792L4.34326 52.2264C3.39567 53.6047 1.27551 53.2802 0.783613 51.6815Z" fill="#C787A5"/>
<defs>
<linearGradient id="paint0_linear_336_1089" x1="336.408" y1="81.5223" x2="182.051" y2="68.7684" gradientUnits="userSpaceOnUse">
<stop stop-color="#B372ED"/>
<stop offset="1" stop-color="#B28AF1"/>
</linearGradient>
<linearGradient id="paint1_linear_336_1089" x1="181.848" y1="146.448" x2="349.667" y2="65.8109" gradientUnits="userSpaceOnUse">
<stop stop-color="#FBB03B"/>
<stop offset="0.5" stop-color="#FBB03B" stop-opacity="0"/>
<stop offset="1" stop-color="#FBB03B"/>
</linearGradient>
<linearGradient id="paint2_linear_336_1089" x1="114.999" y1="50.8605" x2="179.828" y2="175.232" gradientUnits="userSpaceOnUse">
<stop stop-color="#7017BF"/>
<stop offset="0.5" stop-color="#7017BF" stop-opacity="0"/>
<stop offset="1" stop-color="#7017BF"/>
</linearGradient>
</defs>
</svg>
